<?xml version="1.0" encoding="UTF-8" standalone="no"?>
<!-- Created with Inkscape (http://www.inkscape.org/) -->

<svg
   version="1.1"
   id="svg62"
   width="500"
   height="500"
   viewBox="0 0 500.00001 500.00001"
   sodipodi:docname="bazzite-pride.svg"
   inkscape:version="1.3.2 (091e20ef0f, 2023-11-25)"
   xml:space="preserve"
   xmlns:inkscape="http://www.inkscape.org/namespaces/inkscape"
   xmlns:sodipodi="http://sodipodi.sourceforge.net/DTD/sodipodi-0.dtd"
   xmlns="http://www.w3.org/2000/svg"
   xmlns:svg="http://www.w3.org/2000/svg"><defs
     id="defs66"><linearGradient
       id="paint0_linear_1040_3413"
       x1="100"
       y1="100"
       x2="600"
       y2="600"
       gradientUnits="userSpaceOnUse"><stop
         offset="0.0684898"
         stop-color="#0047AB"
         id="stop7" /><stop
         offset="0.741212"
         stop-color="#8A2BE2"
         id="stop8" /></linearGradient></defs><sodipodi:namedview
     id="namedview64"
     pagecolor="#505050"
     bordercolor="#ffffff"
     borderopacity="1"
     inkscape:showpageshadow="0"
     inkscape:pageopacity="0"
     inkscape:pagecheckerboard="1"
     inkscape:deskcolor="#505050"
     showgrid="false"
     inkscape:zoom="1.4142136"
     inkscape:cx="258.44753"
     inkscape:cy="148.84598"
     inkscape:window-width="1714"
     inkscape:window-height="1339"
     inkscape:window-x="26"
     inkscape:window-y="23"
     inkscape:window-maximized="0"
     inkscape:current-layer="layer2" /><g
     inkscape:groupmode="layer"
     inkscape:label="Image"
     id="g68" /><g
     inkscape:groupmode="layer"
     id="layer2"
     inkscape:label="Layer 1"><g
       id="g3224"
       transform="scale(49.997609)"
       style="display:inline"><rect
         style="fill:#e27f94;fill-opacity:1;stroke:#000000;stroke-width:0;stroke-dasharray:none;stroke-opacity:1"
         id="rect2618"
         width="9.999999"
         height="1.6666657"
         x="0.00047862483"
         y="5e-07" /><rect
         style="fill:#fcef9e;fill-opacity:1;stroke:#000000;stroke-width:0;stroke-dasharray:none;stroke-opacity:1"
         id="rect2618-6"
         width="9.999999"
         height="1.6666657"
         x="5e-07"
         y="3.3333337" /><rect
         style="fill:#8dcae7;fill-opacity:1;stroke:#000000;stroke-width:0;stroke-dasharray:none;stroke-opacity:1"
         id="rect2618-7"
         width="9.999999"
         height="1.6666657"
         x="5e-07"
         y="6.666667" /><rect
         style="fill:#f3b382;fill-opacity:1;stroke:#000000;stroke-width:0;stroke-dasharray:none;stroke-opacity:1"
         id="rect2618-3"
         width="9.999999"
         height="1.6666657"
         x="5e-07"
         y="1.6666665" /><rect
         style="fill:#b8eb9c;fill-opacity:1;stroke:#000000;stroke-width:0;stroke-dasharray:none;stroke-opacity:1"
         id="rect2618-3-5"
         width="9.999999"
         height="1.6666657"
         x="5e-07"
         y="5.0000005" /><rect
         style="fill:#b197cd;fill-opacity:1;stroke:#000000;stroke-width:0;stroke-dasharray:none;stroke-opacity:1"
         id="rect2618-3-3"
         width="9.999999"
         height="1.6666657"
         x="5e-07"
         y="8.333334" /></g><g
       style="fill:none"
       id="g1"
       transform="scale(0.26458334)"><g
         id="g8"
         transform="matrix(3.7795276,0,0,3.7795276,-377.95276,-377.95276)"><g
           id="g3"><path
             fill-rule="evenodd"
             clip-rule="evenodd"
             d="m 249.53271,100 h 74.76635 v 149.53271 h 156.75818 c 65.69042,0 118.94275,53.25233 118.94275,118.94275 0,127.86683 -103.65654,231.52453 -231.52453,231.52453 -65.69042,0 -118.94275,-53.25233 -118.94275,-118.94275 V 324.29906 H 100 v -74.76635 h 149.53271 z m 74.76635,224.29906 v 156.75818 c 0,24.39836 19.77804,44.1764 44.1764,44.1764 86.57477,0 156.75818,-70.18341 156.75818,-156.75818 0,-24.39836 -19.77804,-44.1764 -44.1764,-44.1764 z"
             fill="#ffffff"
             fill-opacity="0.5"
             id="path2"
             style="fill:#1f2023;fill-opacity:0.866667;stroke-width:1.16822" /><path
             id="path3"
             style="fill:#1f2023;fill-opacity:0.866667;stroke-width:1.16822"
             d="M 284.58007 135.04687 C 265.22384 135.04687 249.5332 150.73752 249.5332 170.09375 L 249.5332 249.5332 L 170.09375 249.5332 C 150.73752 249.5332 135.04687 265.22384 135.04687 284.58007 L 135.04687 289.25195 C 135.04687 308.60818 150.73752 324.29882 170.09375 324.29882 L 249.5332 324.29882 L 249.5332 403.73827 C 249.5332 423.0945 265.22384 438.78514 284.58007 438.78514 L 289.25195 438.78514 C 308.60818 438.78514 324.29882 423.0945 324.29882 403.73827 L 324.29882 324.29882 L 403.73827 324.29882 C 423.0945 324.29882 438.78514 308.60818 438.78514 289.25195 L 438.78514 284.58007 C 438.78514 265.22384 423.0945 249.5332 403.73827 249.5332 L 324.29882 249.5332 L 324.29882 170.09375 C 324.29882 150.73752 308.60818 135.04687 289.25195 135.04687 L 284.58007 135.04687 z M 286.91601 164.25195 C 288.8833 164.25195 290.85077 165.22698 291.9746 167.17383 L 306.13866 191.70507 C 308.38749 195.59876 305.57656 200.46679 301.08007 200.46679 L 272.75195 200.46679 C 268.25546 200.46679 265.44455 195.59876 267.69335 191.70507 L 281.85742 167.17383 C 282.98123 165.22698 284.94872 164.25195 286.91601 164.25195 z M 194.71679 266.90234 C 197.72856 266.95491 200.46679 269.37958 200.46679 272.75195 L 200.46679 301.08007 C 200.46679 305.57656 195.59876 308.38749 191.70507 306.13866 L 167.17383 291.9746 C 163.28013 289.72693 163.28013 284.10505 167.17383 281.85742 L 191.70507 267.69335 C 192.6785 267.13115 193.71287 266.88481 194.71679 266.90234 z M 379.11522 266.90234 C 380.11915 266.88481 381.15352 267.13115 382.12694 267.69335 L 406.65819 281.85742 C 410.55188 284.10508 410.55188 289.72693 406.65819 291.9746 L 382.12694 306.13866 C 378.23325 308.38749 373.36522 305.57656 373.36522 301.08007 L 373.36522 272.75195 C 373.36522 269.37958 376.10345 266.95491 379.11522 266.90234 z M 272.75195 373.36522 L 301.08007 373.36522 C 305.57656 373.36522 308.38749 378.23326 306.13866 382.12694 L 291.9746 406.65819 C 289.72693 410.55188 284.10507 410.55188 281.85742 406.65819 L 267.69335 382.12694 C 265.44454 378.23326 268.25546 373.36522 272.75195 373.36522 z " /></g><g
           id="g2" /></g></g></g></svg>
