<?xml version="1.0" encoding="UTF-8" standalone="no"?>
<svg
   width="500mm"
   height="500mm"
   viewBox="0 0 1889.7638 1889.7638"
   fill="none"
   version="1.1"
   id="svg8"
   sodipodi:docname="bazzite.svg"
   inkscape:version="1.3.2 (091e20ef0f, 2023-11-25)"
   xmlns:inkscape="http://www.inkscape.org/namespaces/inkscape"
   xmlns:sodipodi="http://sodipodi.sourceforge.net/DTD/sodipodi-0.dtd"
   xmlns="http://www.w3.org/2000/svg"
   xmlns:svg="http://www.w3.org/2000/svg">
  <sodipodi:namedview
     id="namedview8"
     pagecolor="#ffffff"
     bordercolor="#000000"
     borderopacity="0.25"
     inkscape:showpageshadow="2"
     inkscape:pageopacity="0.0"
     inkscape:pagecheckerboard="true"
     inkscape:deskcolor="#d1d1d1"
     inkscape:zoom="0.40107143"
     inkscape:cx="851.46928"
     inkscape:cy="958.6821"
     inkscape:window-width="1714"
     inkscape:window-height="1339"
     inkscape:window-x="26"
     inkscape:window-y="23"
     inkscape:window-maximized="0"
     inkscape:current-layer="svg8"
     inkscape:document-units="mm" />
  <g
     id="g8"
     transform="matrix(3.7795276,0,0,3.7795276,-377.95276,-377.95276)">
    <path
       d="m 100,200 c 0,-55.228 44.772,-100 100,-100 H 350 C 488.071,100 600,211.929 600,350 600,488.071 488.071,600 350,600 211.929,600 100,488.071 100,350 Z"
       fill="url(#paint0_linear_1040_3413)"
       id="path1"
       style="fill:url(#paint0_linear_1040_3413)" />
    <path
       fill-rule="evenodd"
       clip-rule="evenodd"
       d="m 228,100 h 64 V 228 H 426.185 C 482.416,228 528,273.584 528,329.815 528,439.269 439.27,528 329.815,528 273.584,528 228,482.416 228,426.185 V 292 H 100 v -64 h 128 z m 64,192 V 426.185 C 292,447.07 308.93,464 329.815,464 403.923,464 464,403.923 464,329.815 464,308.93 447.07,292 426.185,292 Z"
       fill="#ffffff"
       fill-opacity="0.5"
       id="path2" />
    <path
       d="m 292,160 c 0,-16.569 -13.431,-30 -30,-30 h -4 c -16.569,0 -30,13.431 -30,30 v 68 h -68 c -16.569,0 -30,13.431 -30,30 v 4 c 0,16.569 13.431,30 30,30 h 68 v 68 c 0,16.569 13.431,30 30,30 h 4 c 16.569,0 30,-13.431 30,-30 v -68 h 68 c 16.569,0 30,-13.431 30,-30 v -4 c 0,-16.569 -13.431,-30 -30,-30 h -68 z"
       fill="#ffffff"
       fill-opacity="0.7"
       id="path3" />
    <path
       d="m 362.5,255.67 c 3.333,1.924 3.333,6.736 0,8.66 l -21,12.124 c -3.333,1.925 -7.5,-0.481 -7.5,-4.33 v -24.248 c 0,-3.849 4.167,-6.255 7.5,-4.33 z"
       fill="#ffffff"
       id="path4" />
    <path
       d="m 264.33,362.5 c -1.924,3.333 -6.736,3.333 -8.66,0 l -12.124,-21 c -1.925,-3.333 0.481,-7.5 4.33,-7.5 h 24.248 c 3.849,0 6.255,4.167 4.33,7.5 z"
       fill="#ffffff"
       id="path5" />
    <path
       d="m 255.67,157.5 c 1.924,-3.333 6.736,-3.333 8.66,0 l 12.124,21 c 1.925,3.333 -0.481,7.5 -4.33,7.5 h -24.248 c -3.849,0 -6.255,-4.167 -4.33,-7.5 z"
       fill="#ffffff"
       id="path6" />
    <path
       d="m 157.5,264.33 c -3.333,-1.924 -3.333,-6.736 0,-8.66 l 21,-12.124 c 3.333,-1.925 7.5,0.481 7.5,4.33 v 24.248 c 0,3.849 -4.167,6.255 -7.5,4.33 z"
       fill="#ffffff"
       id="path7" />
  </g>
  <defs
     id="defs8">
    <linearGradient
       id="paint0_linear_1040_3413"
       x1="100"
       y1="100"
       x2="600"
       y2="600"
       gradientUnits="userSpaceOnUse">
      <stop
         offset="0.0684898"
         stop-color="#0047AB"
         id="stop7" />
      <stop
         offset="0.741212"
         stop-color="#8A2BE2"
         id="stop8" />
    </linearGradient>
  </defs>
</svg>
